<?xml version="1.0" encoding="UTF-8" standalone="no"?>
<svg width="24px" height="24px" viewBox="0 0 24 24" version="1.1" xmlns="http://www.w3.org/2000/svg" xmlns:xlink="http://www.w3.org/1999/xlink">
    <!-- Generator: Sketch 39.1 (31720) - http://www.bohemiancoding.com/sketch -->
    <title>ic_quick_settings_wifiadb_white_24dp</title>
    <desc>Created with Sketch.</desc>
    <defs></defs>
    <g id="app_icons" stroke="none" stroke-width="1" fill="none" fill-rule="evenodd">
        <g id="ic_quick_settings_wifiadb_white_24dp" fill="#FFFFFF">
            <g id="app_icon_glyph" transform="translate(2.000000, 0.000000)">
                <path d="M15.0237748,11.6839057 C14.5973998,10.9449776 13.0723921,8.8418746 10.1062498,8.8418746 C7.14010757,8.8418746 5.61509985,10.9449776 5.18872486,11.6839057 L2.52624989,11.6839057 L2.52624989,13.5785931 L4.50652487,13.5785931 C4.45914987,13.8912166 4.42124987,14.20384 4.42124987,14.5259368 L4.42124987,15.4732805 L2.52624989,15.4732805 L2.52624989,17.367968 L4.42124987,17.367968 L4.42124987,18.3153117 C4.42124987,18.6374085 4.45914987,18.950032 4.50652487,19.2626554 L2.52624989,19.2626554 L2.52624989,21.1573428 L5.18872486,21.1573428 C6.17412485,22.853088 8.00279983,23.9993739 10.1062498,23.9993739 C12.2096998,23.9993739 14.0383748,22.853088 15.0237748,21.1573428 L17.6862497,21.1573428 L17.6862497,19.2626554 L15.7059748,19.2626554 C15.7533498,18.950032 15.7912498,18.6374085 15.7912498,18.3153117 L15.7912498,17.367968 L17.6862497,17.367968 L17.6862497,15.4732805 L15.7912498,15.4732805 L15.7912498,14.5259368 C15.7912498,14.20384 15.7533498,13.8912166 15.7059748,13.5785931 L17.6862497,13.5785931 L17.6862497,11.6839057 L15.0237748,11.6839057 L15.0237748,11.6839057 L15.0237748,11.6839057 L15.0237748,11.6839057 L15.0237748,11.6839057 L15.0237748,11.6839057 L15.0237748,11.6839057 L15.0237748,11.6839057 L15.0237748,11.6839057 L15.0237748,11.6839057 L15.0237748,11.6839057 Z M11.999687,19.2626554 L8.21031213,19.2626554 L8.21031213,17.367968 L11.999687,17.367968 L11.999687,19.2626554 L11.999687,19.2626554 L11.999687,19.2626554 L11.999687,19.2626554 L11.999687,19.2626554 L11.999687,19.2626554 L11.999687,19.2626554 L11.999687,19.2626554 L11.999687,19.2626554 L11.999687,19.2626554 L11.999687,19.2626554 L11.999687,19.2626554 Z M8.21031213,15.4732805 L8.21031213,13.5785931 L11.999687,13.5785931 L11.999687,15.4732805 L8.21031213,15.4732805 L8.21031213,15.4732805 Z M3.585645,7.6671684 L5.444645,9.47343707 C6.627645,8.32399337 8.278645,7.60401216 10.085645,7.60401216 C11.892645,7.60401216 13.543645,8.32399337 14.726645,9.47343707 L16.585645,7.6671684 C15.2407235,6.3603962 13.4796743,5.45794807 11.5152799,5.15990159 C11.0492333,5.08919097 10.5717412,5.05249977 10.085645,5.05249977 C7.550645,5.05249977 5.249645,6.05036848 3.585645,7.6671684 L3.585645,7.6671684 Z M0,4.05463107 L1.81935484,5.83563724 C3.90967742,3.78937483 6.81290323,2.52624989 10,2.52624989 C13.1870968,2.52624989 16.0903226,3.78937483 18.1806452,5.83563724 L20,4.05463107 C17.4322581,1.55364368 13.8967742,0 10,0 C6.10322581,0 2.56774194,1.55364368 0,4.05463107 Z" id="shape"></path>
            </g>
        </g>
    </g>
</svg>